<svg width="15" height="19" viewBox="0 0 15 19" fill="none" xmlns="http://www.w3.org/2000/svg">
<path d="M11.7992 1.81829C12.0066 1.33665 11.8519 0.774146 11.4266 0.464771C11.0012 0.155396 10.4211 0.183521 10.0238 0.528052L1.02382 8.40305C0.672258 8.71243 0.545696 9.20813 0.71093 9.64407C0.876164 10.08 1.29804 10.3753 1.76562 10.3753H5.68554L2.98202 16.6823C2.7746 17.164 2.92929 17.7265 3.35468 18.0359C3.78007 18.3452 4.36015 18.3171 4.75741 17.9726L13.7574 10.0976C14.109 9.78821 14.2355 9.29251 14.0703 8.85657C13.9051 8.42063 13.4867 8.12883 13.0156 8.12883H9.0957L11.7992 1.81829Z" fill="#74C5FB"/>
</svg>
