<svg width="22" height="16" viewBox="0 0 22 16" fill="none" xmlns="http://www.w3.org/2000/svg">
<path d="M9.65 15.8262C10.0297 15.9598 10.4375 15.682 10.4375 15.2812V2.01328C10.4375 1.86562 10.3813 1.71797 10.2617 1.62656C9.57266 1.07812 7.99062 0.375 5.9375 0.375C4.16211 0.375 2.50273 0.842578 1.51133 1.22227C1.11406 1.37695 0.875 1.7707 0.875 2.19609V15.2145C0.875 15.6328 1.325 15.9246 1.72227 15.7945C2.82969 15.4254 4.58398 15 5.9375 15C7.1293 15 8.71484 15.4922 9.65 15.8262ZM12.35 15.8262C13.2852 15.4922 14.8707 15 16.0625 15C17.416 15 19.1703 15.4254 20.2777 15.7945C20.675 15.9281 21.125 15.6328 21.125 15.2145V2.19609C21.125 1.7707 20.8859 1.37695 20.4887 1.22578C19.4973 0.842578 17.8379 0.375 16.0625 0.375C14.0094 0.375 12.4273 1.07812 11.7383 1.62656C11.6223 1.71797 11.5625 1.86562 11.5625 2.01328V15.2812C11.5625 15.682 11.9738 15.9598 12.35 15.8262Z" fill="#74C5FB"/>
</svg>
