<svg width="25" height="25" viewBox="0 0 25 25" fill="none" xmlns="http://www.w3.org/2000/svg">
<path d="M8.52189 5.1062C9.17814 5.90308 9.97501 6.55464 10.8422 7.08433C12.0563 7.82495 13.3594 8.29839 14.4844 8.56558V7.08902C13.4438 5.6687 12.7031 3.93433 12.6375 1.89527C12.6188 1.36558 12.2859 0.887453 11.775 0.751516C11.4188 0.657766 11.0344 0.742141 10.7906 1.02339C10.1672 1.74527 9.25782 3.11402 8.52189 5.11089V5.1062ZM15.9844 7.33277V8.76714V8.82808V10.3328C13.1344 10.0937 7.31251 8.27964 5.7047 2.96402C5.55001 2.45777 5.1047 2.08277 4.57501 2.08277C4.2047 2.08277 3.85782 2.26558 3.69376 2.59839C3.17814 3.67183 2.48439 5.83745 2.48439 8.83277C2.48439 14.3125 6.23907 17.2937 8.03439 18.339L1.53751 20.1109C1.29845 20.1765 1.10626 20.3546 1.02658 20.589C0.946888 20.8234 0.989075 21.0859 1.13439 21.2828C2.00157 22.4359 4.60782 24.5828 8.48439 24.5828C8.65314 24.5828 8.82189 24.5265 8.95314 24.4187L12.4969 21.5828H15.9844C20.1281 21.5828 23.4844 18.2265 23.4844 14.0828V6.58277L24.8859 4.47808C24.9469 4.38433 24.9844 4.27183 24.9844 4.15933C24.9844 3.84058 24.7266 3.58277 24.4078 3.58277H19.7344C17.6625 3.58277 15.9844 5.26089 15.9844 7.33277ZM19.7344 6.58277C19.9333 6.58277 20.1241 6.66178 20.2647 6.80244C20.4054 6.94309 20.4844 7.13385 20.4844 7.33277C20.4844 7.53168 20.4054 7.72244 20.2647 7.8631C20.1241 8.00375 19.9333 8.08277 19.7344 8.08277C19.5355 8.08277 19.3447 8.00375 19.2041 7.8631C19.0634 7.72244 18.9844 7.53168 18.9844 7.33277C18.9844 7.13385 19.0634 6.94309 19.2041 6.80244C19.3447 6.66178 19.5355 6.58277 19.7344 6.58277Z" fill="#9CA3AF"/>
</svg>
