<svg width="24" height="19" viewBox="0 0 24 19" fill="none" xmlns="http://www.w3.org/2000/svg">
<path d="M5.8125 0.25C6.55842 0.25 7.27379 0.546316 7.80124 1.07376C8.32868 1.60121 8.625 2.31658 8.625 3.0625C8.625 3.80842 8.32868 4.52379 7.80124 5.05124C7.27379 5.57868 6.55842 5.875 5.8125 5.875C5.06658 5.875 4.35121 5.57868 3.82376 5.05124C3.29632 4.52379 3 3.80842 3 3.0625C3 2.31658 3.29632 1.60121 3.82376 1.07376C4.35121 0.546316 5.06658 0.25 5.8125 0.25ZM18.75 0.25C19.4959 0.25 20.2113 0.546316 20.7387 1.07376C21.2662 1.60121 21.5625 2.31658 21.5625 3.0625C21.5625 3.80842 21.2662 4.52379 20.7387 5.05124C20.2113 5.57868 19.4959 5.875 18.75 5.875C18.0041 5.875 17.2887 5.57868 16.7613 5.05124C16.2338 4.52379 15.9375 3.80842 15.9375 3.0625C15.9375 2.31658 16.2338 1.60121 16.7613 1.07376C17.2887 0.546316 18.0041 0.25 18.75 0.25ZM0.75 10.7512C0.75 8.68047 2.43047 7 4.50117 7H6.00234C6.56133 7 7.09219 7.12305 7.57031 7.34102C7.52461 7.59414 7.50352 7.85781 7.50352 8.125C7.50352 9.46797 8.09414 10.6738 9.02578 11.5C9.01875 11.5 9.01172 11.5 9.00117 11.5H1.49883C1.0875 11.5 0.75 11.1625 0.75 10.7512ZM14.9988 11.5C14.9918 11.5 14.9848 11.5 14.9742 11.5C15.9094 10.6738 16.4965 9.46797 16.4965 8.125C16.4965 7.85781 16.4719 7.59766 16.4297 7.34102C16.9078 7.11953 17.4387 7 17.9977 7H19.4988C21.5695 7 23.25 8.68047 23.25 10.7512C23.25 11.166 22.9125 11.5 22.5012 11.5H14.9988ZM8.625 8.125C8.625 7.22989 8.98058 6.37145 9.61351 5.73851C10.2465 5.10558 11.1049 4.75 12 4.75C12.8951 4.75 13.7536 5.10558 14.3865 5.73851C15.0194 6.37145 15.375 7.22989 15.375 8.125C15.375 9.02011 15.0194 9.87855 14.3865 10.5115C13.7536 11.1444 12.8951 11.5 12 11.5C11.1049 11.5 10.2465 11.1444 9.61351 10.5115C8.98058 9.87855 8.625 9.02011 8.625 8.125ZM5.25 17.3113C5.25 14.7238 7.34883 12.625 9.93633 12.625H14.0637C16.6512 12.625 18.75 14.7238 18.75 17.3113C18.75 17.8281 18.3316 18.25 17.8113 18.25H6.18867C5.67188 18.25 5.25 17.8316 5.25 17.3113Z" fill="#EA580C"/>
</svg>
