<svg width="15" height="13" viewBox="0 0 15 13" fill="none" xmlns="http://www.w3.org/2000/svg">
<path d="M7.40625 1.9375C4.50508 1.9375 2.1125 4.10859 1.7625 6.91406C2.01953 6.81016 2.29844 6.75 2.59375 6.75C3.31836 6.75 3.90625 7.33789 3.90625 8.0625V11.5625C3.90625 12.2871 3.31836 12.875 2.59375 12.875C1.38516 12.875 0.40625 11.8961 0.40625 10.6875V10.25V8.9375V7.625C0.40625 3.75859 3.53984 0.625 7.40625 0.625C11.2727 0.625 14.4062 3.75859 14.4062 7.625V8.9375V10.25V10.6875C14.4062 11.8961 13.4273 12.875 12.2188 12.875C11.4941 12.875 10.9062 12.2871 10.9062 11.5625V8.0625C10.9062 7.33789 11.4941 6.75 12.2188 6.75C12.5141 6.75 12.793 6.80742 13.05 6.91406C12.7 4.10859 10.3074 1.9375 7.40625 1.9375Z" fill="#74C5FB"/>
</svg>
