<svg width="135" height="128" viewBox="0 0 135 128" fill="none" xmlns="http://www.w3.org/2000/svg">
<path d="M64 0C99.3462 0 128 28.6538 128 64C128 99.3462 99.3462 128 64 128C28.6538 128 0 99.3462 0 64C0 28.6538 28.6538 0 64 0Z" fill="white" fill-opacity="0.1"/>
<path d="M64 0C99.3462 0 128 28.6538 128 64C128 99.3462 99.3462 128 64 128C28.6538 128 0 99.3462 0 64C0 28.6538 28.6538 0 64 0Z" stroke="#E5E7EB"/>
<path d="M102.5 84H25.5V44H102.5V84Z" stroke="#E5E7EB"/>
<path d="M37.003 69.6648C34.9831 69.6648 33.2445 69.2557 31.7871 68.4375C30.3382 67.6108 29.2218 66.4432 28.4377 64.9347C27.6536 63.4176 27.2615 61.6236 27.2615 59.5526C27.2615 57.5327 27.6536 55.7599 28.4377 54.2344C29.2218 52.7088 30.3255 51.5199 31.7488 50.6676C33.1806 49.8153 34.8596 49.3892 36.7857 49.3892C38.0811 49.3892 39.2871 49.598 40.4036 50.0156C41.5286 50.4247 42.5087 51.0426 43.3439 51.8693C44.1877 52.696 44.8439 53.7358 45.3127 54.9886C45.7814 56.233 46.0158 57.6903 46.0158 59.3608V60.8565H29.4348V57.4815H40.8894C40.8894 56.6974 40.7189 56.0028 40.378 55.3977C40.0371 54.7926 39.5641 54.3196 38.959 53.9787C38.3624 53.6293 37.6678 53.4545 36.8752 53.4545C36.0485 53.4545 35.3155 53.6463 34.6763 54.0298C34.0456 54.4048 33.5513 54.9119 33.1934 55.5511C32.8354 56.1818 32.6522 56.8849 32.6436 57.6605V60.8693C32.6436 61.8409 32.8226 62.6804 33.1806 63.3878C33.5471 64.0952 34.0627 64.6406 34.7275 65.0241C35.3922 65.4077 36.1806 65.5994 37.0925 65.5994C37.6976 65.5994 38.2516 65.5142 38.7544 65.3438C39.2573 65.1733 39.6877 64.9176 40.0456 64.5767C40.4036 64.2358 40.6763 63.8182 40.8638 63.3239L45.9007 63.6562C45.6451 64.8665 45.1209 65.9233 44.3283 66.8267C43.5442 67.7216 42.53 68.4205 41.2857 68.9233C40.0499 69.4176 38.6223 69.6648 37.003 69.6648ZM49.5698 69.2812V49.6449H54.7601V53.1094H54.9902C55.3993 51.9588 56.0811 51.0511 57.0357 50.3864C57.9902 49.7216 59.1323 49.3892 60.4618 49.3892C61.8084 49.3892 62.9547 49.7259 63.9007 50.3991C64.8468 51.0639 65.4775 51.9673 65.7928 53.1094H65.9973C66.3979 51.9844 67.1223 51.0852 68.1706 50.4119C69.2275 49.7301 70.476 49.3892 71.9164 49.3892C73.7488 49.3892 75.236 49.973 76.378 51.1406C77.5286 52.2997 78.1039 53.9446 78.1039 56.0753V69.2812H72.6706V57.1491C72.6706 56.0582 72.3809 55.2401 71.8013 54.6946C71.2218 54.1491 70.4973 53.8764 69.628 53.8764C68.6394 53.8764 67.8681 54.1918 67.3141 54.8224C66.7601 55.4446 66.4831 56.267 66.4831 57.2898V69.2812H61.2033V57.0341C61.2033 56.071 60.9263 55.304 60.3723 54.733C59.8269 54.1619 59.1067 53.8764 58.2118 53.8764C57.6067 53.8764 57.0613 54.0298 56.5755 54.3366C56.0982 54.6349 55.7189 55.0568 55.4377 55.6023C55.1564 56.1392 55.0158 56.7699 55.0158 57.4943V69.2812H49.5698ZM82.508 69.2812V43.0994H87.954V52.9432H88.1202C88.3588 52.4148 88.704 51.8778 89.1557 51.3324C89.6159 50.7784 90.2125 50.3182 90.9455 49.9517C91.687 49.5767 92.6074 49.3892 93.7069 49.3892C95.1387 49.3892 96.4597 49.7642 97.6699 50.5142C98.8801 51.2557 99.8475 52.3764 100.572 53.8764C101.296 55.3679 101.659 57.2386 101.659 59.4886C101.659 61.679 101.305 63.5284 100.597 65.0369C99.8986 66.5369 98.9441 67.6747 97.7338 68.4503C96.5321 69.2173 95.1855 69.6009 93.6941 69.6009C92.6373 69.6009 91.7381 69.4261 90.9966 69.0767C90.2637 68.7273 89.6628 68.2884 89.1941 67.7599C88.7253 67.223 88.3674 66.6818 88.1202 66.1364H87.8773V69.2812H82.508ZM87.839 59.4631C87.839 60.6307 88.0009 61.6491 88.3248 62.5185C88.6486 63.3878 89.1174 64.0653 89.731 64.5511C90.3446 65.0284 91.0904 65.267 91.9682 65.267C92.8546 65.267 93.6046 65.0241 94.2182 64.5384C94.8319 64.044 95.2963 63.3622 95.6117 62.4929C95.9355 61.6151 96.0975 60.6051 96.0975 59.4631C96.0975 58.3295 95.9398 57.3324 95.6245 56.4716C95.3091 55.6108 94.8446 54.9375 94.231 54.4517C93.6174 53.9659 92.8631 53.723 91.9682 53.723C91.0819 53.723 90.3319 53.9574 89.7182 54.4261C89.1131 54.8949 88.6486 55.5597 88.3248 56.4205C88.0009 57.2812 87.839 58.2955 87.839 59.4631Z" fill="#EF4444"/>
<path d="M134.5 68H110.5V36H134.5V68Z" stroke="#E5E7EB"/>
<g clip-path="url(#clip0_1_77)">
<g clip-path="url(#clip1_1_77)">
<path d="M118.038 43.5242C118.694 44.321 119.491 44.9726 120.358 45.5023C121.572 46.2429 122.875 46.7164 124 46.9835V45.507C122.959 44.0867 122.219 42.3523 122.153 40.3132C122.134 39.7835 121.802 39.3054 121.291 39.1695C120.934 39.0757 120.55 39.1601 120.306 39.4414C119.683 40.1632 118.773 41.532 118.038 43.5289V43.5242ZM125.5 45.7507V47.1851V47.246V48.7507C122.65 48.5117 116.828 46.6976 115.22 41.382C115.066 40.8757 114.62 40.5007 114.091 40.5007C113.72 40.5007 113.373 40.6835 113.209 41.0164C112.694 42.0898 112 44.2554 112 47.2507C112 52.7304 115.755 55.7117 117.55 56.757L111.053 58.5289C110.814 58.5945 110.622 58.7726 110.542 59.007C110.463 59.2414 110.505 59.5039 110.65 59.7007C111.517 60.8539 114.123 63.0007 118 63.0007C118.169 63.0007 118.338 62.9445 118.469 62.8367L122.013 60.0007H125.5C129.644 60.0007 133 56.6445 133 52.5007V45.0007L134.402 42.896C134.463 42.8023 134.5 42.6898 134.5 42.5773C134.5 42.2585 134.242 42.0007 133.923 42.0007H129.25C127.178 42.0007 125.5 43.6789 125.5 45.7507ZM129.25 45.0007C129.449 45.0007 129.64 45.0798 129.78 45.2204C129.921 45.3611 130 45.5518 130 45.7507C130 45.9496 129.921 46.1404 129.78 46.2811C129.64 46.4217 129.449 46.5007 129.25 46.5007C129.051 46.5007 128.86 46.4217 128.72 46.2811C128.579 46.1404 128.5 45.9496 128.5 45.7507C128.5 45.5518 128.579 45.3611 128.72 45.2204C128.86 45.0798 129.051 45.0007 129.25 45.0007Z" fill="white"/>
</g>
</g>
<defs>
<clipPath id="clip0_1_77">
<rect width="24" height="24" fill="white" transform="translate(110.5 39)"/>
</clipPath>
<clipPath id="clip1_1_77">
<path d="M110.5 39H134.5V63H110.5V39Z" fill="white"/>
</clipPath>
</defs>
</svg>
