<svg width="18" height="19" viewBox="0 0 18 19" fill="none" xmlns="http://www.w3.org/2000/svg">
<path d="M17.3558 6.10703C17.4683 6.41289 17.3734 6.75391 17.1308 6.97187L15.6085 8.35703C15.6472 8.64883 15.6683 8.94766 15.6683 9.25C15.6683 9.55234 15.6472 9.85117 15.6085 10.143L17.1308 11.5281C17.3734 11.7461 17.4683 12.0871 17.3558 12.393C17.2011 12.8113 17.0148 13.2121 16.8003 13.5988L16.6351 13.8836C16.403 14.2703 16.1429 14.6359 15.8581 14.9805C15.6507 15.2336 15.3062 15.318 14.9968 15.2195L13.0386 14.5973C12.5675 14.9594 12.0472 15.2617 11.4917 15.4902L11.0523 17.4977C10.9819 17.8176 10.7358 18.0707 10.4124 18.1234C9.92726 18.2043 9.42804 18.2465 8.91827 18.2465C8.4085 18.2465 7.90929 18.2043 7.42413 18.1234C7.10069 18.0707 6.8546 17.8176 6.78429 17.4977L6.34483 15.4902C5.78936 15.2617 5.26905 14.9594 4.79796 14.5973L2.84327 15.223C2.5339 15.3215 2.18936 15.2336 1.98194 14.984C1.69718 14.6395 1.43702 14.2738 1.20499 13.8871L1.03976 13.6023C0.825302 13.2156 0.638974 12.8148 0.484286 12.3965C0.371786 12.0906 0.466708 11.7496 0.709286 11.5316L2.23155 10.1465C2.19288 9.85117 2.17179 9.55234 2.17179 9.25C2.17179 8.94766 2.19288 8.64883 2.23155 8.35703L0.709286 6.97187C0.466708 6.75391 0.371786 6.41289 0.484286 6.10703C0.638974 5.68867 0.825302 5.28789 1.03976 4.90117L1.20499 4.61641C1.43702 4.22969 1.69718 3.86406 1.98194 3.51953C2.18936 3.26641 2.5339 3.18203 2.84327 3.28047L4.80147 3.90273C5.27257 3.54063 5.79288 3.23828 6.34835 3.00977L6.7878 1.00234C6.85811 0.682422 7.10421 0.429297 7.42765 0.376562C7.9128 0.292187 8.41202 0.25 8.92179 0.25C9.43155 0.25 9.93077 0.292188 10.4159 0.373047C10.7394 0.425781 10.9855 0.678906 11.0558 0.998828L11.4952 3.00625C12.0507 3.23477 12.571 3.53711 13.0421 3.89922L15.0003 3.27695C15.3097 3.17852 15.6542 3.26641 15.8616 3.51602C16.1464 3.86055 16.4066 4.22617 16.6386 4.61289L16.8038 4.89766C17.0183 5.28437 17.2046 5.68516 17.3593 6.10352L17.3558 6.10703ZM8.92179 12.0625C9.66771 12.0625 10.3831 11.7662 10.9105 11.2387C11.438 10.7113 11.7343 9.99592 11.7343 9.25C11.7343 8.50408 11.438 7.78871 10.9105 7.26126C10.3831 6.73382 9.66771 6.4375 8.92179 6.4375C8.17586 6.4375 7.46049 6.73382 6.93305 7.26126C6.4056 7.78871 6.10929 8.50408 6.10929 9.25C6.10929 9.99592 6.4056 10.7113 6.93305 11.2387C7.46049 11.7662 8.17586 12.0625 8.92179 12.0625Z" fill="#9CA3AF"/>
</svg>
