<svg width="19" height="17" viewBox="0 0 19 17" fill="none" xmlns="http://www.w3.org/2000/svg">
<path d="M11.293 0.474146C10.8887 0.653443 10.625 1.05774 10.625 1.50071V3.75071H6.6875C3.27031 3.75071 0.5 6.52102 0.5 9.93821C0.5 13.9214 3.36523 15.7003 4.02266 16.0589C4.11055 16.1081 4.20898 16.1257 4.30742 16.1257C4.69063 16.1257 5 15.8128 5 15.4331C5 15.1695 4.84883 14.9269 4.65547 14.7476C4.325 14.4347 3.875 13.8195 3.875 12.7507C3.875 10.8874 5.38672 9.37571 7.25 9.37571H10.625V11.6257C10.625 12.0687 10.8852 12.473 11.293 12.6523C11.7008 12.8316 12.1719 12.7577 12.5023 12.4624L18.1273 7.39993C18.3629 7.18547 18.5 6.88313 18.5 6.56321C18.5 6.24329 18.3664 5.94094 18.1273 5.72649L12.5023 0.66399C12.1719 0.365161 11.6973 0.291333 11.293 0.474146Z" fill="#95A5A6"/>
</svg>
