<svg width="10" height="11" viewBox="0 0 10 11" fill="none" xmlns="http://www.w3.org/2000/svg">
<path d="M1.9375 0.5C1.21289 0.5 0.625 1.08789 0.625 1.8125V9.6875C0.625 10.4121 1.21289 11 1.9375 11H2.8125C3.53711 11 4.125 10.4121 4.125 9.6875V1.8125C4.125 1.08789 3.53711 0.5 2.8125 0.5H1.9375ZM7.1875 0.5C6.46289 0.5 5.875 1.08789 5.875 1.8125V9.6875C5.875 10.4121 6.46289 11 7.1875 11H8.0625C8.78711 11 9.375 10.4121 9.375 9.6875V1.8125C9.375 1.08789 8.78711 0.5 8.0625 0.5H7.1875Z" fill="white"/>
</svg>
