<svg width="17" height="19" viewBox="0 0 17 19" fill="none" xmlns="http://www.w3.org/2000/svg">
<path d="M4 1.375V2.5H2.3125C1.38086 2.5 0.625 3.25586 0.625 4.1875V5.875H16.375V4.1875C16.375 3.25586 15.6191 2.5 14.6875 2.5H13V1.375C13 0.752734 12.4973 0.25 11.875 0.25C11.2527 0.25 10.75 0.752734 10.75 1.375V2.5H6.25V1.375C6.25 0.752734 5.74727 0.25 5.125 0.25C4.50273 0.25 4 0.752734 4 1.375ZM16.375 7H0.625V16.5625C0.625 17.4941 1.38086 18.25 2.3125 18.25H14.6875C15.6191 18.25 16.375 17.4941 16.375 16.5625V7Z" fill="#A855F7"/>
</svg>
