<svg width="24" height="19" viewBox="0 0 24 19" fill="none" xmlns="http://www.w3.org/2000/svg">
<path d="M13.0969 0.418816C13.2094 0.348503 13.3289 0.3028 13.4484 0.274675C13.6137 0.239519 13.7859 0.243035 13.9441 0.278191C14.2148 0.341472 14.4645 0.506706 14.6262 0.756316L18.8414 7.07741C19.1508 7.53796 19.3125 8.08288 19.3125 8.63835V11.2223C19.3125 11.4649 19.4672 11.6794 19.6957 11.7567L22.4801 12.6848C22.9406 12.836 23.25 13.2649 23.25 13.7501V17.1251C23.25 17.4731 23.0883 17.8036 22.8105 18.018C22.5328 18.2325 22.1742 18.3028 21.8367 18.2114L15.9023 16.6294C13.9336 16.1055 12.5625 14.3196 12.5625 12.2805V8.12507C12.5625 7.5028 13.0652 7.00007 13.6875 7.00007C14.3098 7.00007 14.8125 7.5028 14.8125 8.12507V10.9376C14.8125 11.2469 15.0656 11.5001 15.375 11.5001C15.6844 11.5001 15.9375 11.2469 15.9375 10.9376V7.9528C15.9375 7.70671 15.8742 7.46764 15.7512 7.25671L12.7137 1.94108C12.6539 1.83561 12.6117 1.72663 12.5871 1.61413C12.552 1.44889 12.552 1.27663 12.5906 1.11843C12.6574 0.837175 12.8297 0.58405 13.0934 0.418816H13.0969ZM10.9031 0.418816C11.1668 0.580535 11.3391 0.837175 11.4059 1.11843C11.4445 1.28014 11.448 1.44889 11.4094 1.61413C11.3848 1.72663 11.3426 1.83561 11.2828 1.94108L8.24883 7.25671C8.12578 7.46764 8.0625 7.71022 8.0625 7.9528V10.9376C8.0625 11.2469 8.31563 11.5001 8.625 11.5001C8.93437 11.5001 9.1875 11.2469 9.1875 10.9376V8.12507C9.1875 7.5028 9.69023 7.00007 10.3125 7.00007C10.9348 7.00007 11.4375 7.5028 11.4375 8.12507V12.284C11.4375 14.3231 10.0664 16.1055 8.09766 16.6329L2.1668 18.2149C1.8293 18.3063 1.46719 18.2325 1.19297 18.0215C0.91875 17.8106 0.75 17.4766 0.75 17.1251V13.7501C0.75 13.2649 1.05937 12.836 1.51992 12.6813L4.3043 11.7532C4.53281 11.6758 4.6875 11.4614 4.6875 11.2188V8.63483C4.6875 8.07936 4.85273 7.53796 5.15859 7.07389L9.37031 0.759831C9.53203 0.510222 9.78164 0.344988 10.0523 0.281706C10.2141 0.243035 10.3828 0.239519 10.548 0.278191C10.6711 0.306316 10.7906 0.352019 10.8996 0.422331L10.9031 0.418816Z" fill="#27AE60"/>
</svg>
