<svg width="13" height="15" viewBox="0 0 13 15" fill="none" xmlns="http://www.w3.org/2000/svg">
<path d="M6.6875 7.75C7.61576 7.75 8.506 7.38125 9.16237 6.72487C9.81875 6.0685 10.1875 5.17826 10.1875 4.25C10.1875 3.32174 9.81875 2.4315 9.16237 1.77513C8.506 1.11875 7.61576 0.75 6.6875 0.75C5.75924 0.75 4.869 1.11875 4.21263 1.77513C3.55625 2.4315 3.1875 3.32174 3.1875 4.25C3.1875 5.17826 3.55625 6.0685 4.21263 6.72487C4.869 7.38125 5.75924 7.75 6.6875 7.75ZM5.43789 9.0625C2.74453 9.0625 0.5625 11.2445 0.5625 13.9379C0.5625 14.3863 0.926172 14.75 1.37461 14.75H12.0004C12.4488 14.75 12.8125 14.3863 12.8125 13.9379C12.8125 11.2445 10.6305 9.0625 7.93711 9.0625H5.43789Z" fill="#74C5FB"/>
</svg>
