<svg width="17" height="16" viewBox="0 0 17 16" fill="none" xmlns="http://www.w3.org/2000/svg">
<g clip-path="url(#clip0_1_270)">
<path d="M15.8062 1.46895C16.2031 1.35332 16.4312 0.934573 16.3156 0.537698C16.2 0.140823 15.7812 -0.0873021 15.3813 0.0314479L1.95938 3.96582C1.66563 4.0502 1.4 4.19395 1.175 4.37832C0.671875 4.74082 0.34375 5.33145 0.34375 6.0002V6.1252V9.5002V14.0002C0.34375 15.1033 1.24063 16.0002 2.34375 16.0002H14.3438C15.4469 16.0002 16.3438 15.1033 16.3438 14.0002V6.0002C16.3438 4.89707 15.4469 4.0002 14.3438 4.0002H7.17188L15.8062 1.46895ZM11.8438 7.5002C12.5068 7.5002 13.1427 7.76359 13.6115 8.23243C14.0804 8.70127 14.3438 9.33716 14.3438 10.0002C14.3438 10.6632 14.0804 11.2991 13.6115 11.768C13.1427 12.2368 12.5068 12.5002 11.8438 12.5002C11.1807 12.5002 10.5448 12.2368 10.076 11.768C9.60714 11.2991 9.34375 10.6632 9.34375 10.0002C9.34375 9.33716 9.60714 8.70127 10.076 8.23243C10.5448 7.76359 11.1807 7.5002 11.8438 7.5002ZM2.84375 8.0002C2.84375 7.7252 3.06875 7.5002 3.34375 7.5002H6.34375C6.61875 7.5002 6.84375 7.7252 6.84375 8.0002C6.84375 8.2752 6.61875 8.5002 6.34375 8.5002H3.34375C3.06875 8.5002 2.84375 8.2752 2.84375 8.0002ZM2.34375 10.0002C2.34375 9.7252 2.56875 9.5002 2.84375 9.5002H6.84375C7.11875 9.5002 7.34375 9.7252 7.34375 10.0002C7.34375 10.2752 7.11875 10.5002 6.84375 10.5002H2.84375C2.56875 10.5002 2.34375 10.2752 2.34375 10.0002ZM2.84375 12.0002C2.84375 11.7252 3.06875 11.5002 3.34375 11.5002H6.34375C6.61875 11.5002 6.84375 11.7252 6.84375 12.0002C6.84375 12.2752 6.61875 12.5002 6.34375 12.5002H3.34375C3.06875 12.5002 2.84375 12.2752 2.84375 12.0002Z" fill="white"/>
</g>
<defs>
<clipPath id="clip0_1_270">
<path d="M0.34375 0H16.3438V16H0.34375V0Z" fill="white"/>
</clipPath>
</defs>
</svg>
