<svg width="14" height="15" viewBox="0 0 14 15" fill="none" xmlns="http://www.w3.org/2000/svg">
<path d="M13.62 0.90323C13.8961 1.09464 14.0411 1.4255 13.9891 1.75635L12.2391 13.1314C12.1981 13.3966 12.0368 13.629 11.8016 13.7603C11.5664 13.8915 11.2848 13.9079 11.036 13.804L7.76567 12.445L5.89262 14.4712C5.64926 14.7364 5.26645 14.8239 4.93012 14.6927C4.59379 14.5614 4.37504 14.236 4.37504 13.8751V11.5892C4.37504 11.4798 4.41606 11.3759 4.48988 11.2966L9.0727 6.29542C9.23129 6.12315 9.22582 5.85792 9.06176 5.69385C8.8977 5.52979 8.63246 5.51886 8.4602 5.67471L2.89848 10.6157L0.484025 9.40714C0.194181 9.26221 0.00824379 8.97237 4.06594e-05 8.64971C-0.00816247 8.32706 0.161369 8.02628 0.440275 7.86495L12.6903 0.864948C12.9829 0.698151 13.3438 0.714558 13.62 0.90323Z" fill="white"/>
</svg>
