<svg width="19" height="17" viewBox="0 0 19 17" fill="none" xmlns="http://www.w3.org/2000/svg">
<path d="M2.73438 1.5C2.73438 0.877734 2.23164 0.375 1.60938 0.375C0.987109 0.375 0.484375 0.877734 0.484375 1.5V13.3125C0.484375 14.8664 1.74297 16.125 3.29688 16.125H17.3594C17.9816 16.125 18.4844 15.6223 18.4844 15C18.4844 14.3777 17.9816 13.875 17.3594 13.875H3.29688C2.9875 13.875 2.73438 13.6219 2.73438 13.3125V1.5ZM17.0289 4.54453C17.4684 4.10508 17.4684 3.39141 17.0289 2.95195C16.5895 2.5125 15.8758 2.5125 15.4363 2.95195L11.7344 6.65742L9.71641 4.63945C9.27695 4.2 8.56328 4.2 8.12383 4.63945L4.18633 8.57695C3.74688 9.01641 3.74688 9.73008 4.18633 10.1695C4.62578 10.609 5.33945 10.609 5.77891 10.1695L8.92188 7.03008L10.9398 9.04805C11.3793 9.4875 12.093 9.4875 12.5324 9.04805L17.0324 4.54805L17.0289 4.54453Z" fill="#74C5FB"/>
</svg>
