<svg width="20" height="19" viewBox="0 0 20 19" fill="none" xmlns="http://www.w3.org/2000/svg">
<path d="M11.4492 11.3242L17.018 3.76562L15.9879 2.73203L8.42578 8.30078L11.4492 11.3242ZM4.875 11.5V8.9793C4.875 8.44141 5.12813 7.93867 5.56055 7.62227L15.1617 0.545312C15.4219 0.351953 15.7383 0.25 16.0617 0.25C16.4625 0.25 16.8492 0.408203 17.134 0.692969L19.0605 2.61953C19.3453 2.9043 19.5035 3.2875 19.5035 3.6918C19.5035 4.01523 19.4016 4.33164 19.2082 4.5918L12.1312 14.1895C11.8148 14.6219 11.3086 14.875 10.7742 14.875H8.25L7.35703 15.768C6.91758 16.2074 6.20391 16.2074 5.76445 15.768L3.98203 13.9855C3.54258 13.5461 3.54258 12.8324 3.98203 12.393L4.875 11.5ZM0.621094 16.6434L2.83594 14.4285L5.31797 16.9105L4.22812 18.0004C4.06992 18.1586 3.85547 18.2465 3.63047 18.2465H1.21875C0.751172 18.2465 0.375 17.8703 0.375 17.4027V17.2375C0.375 17.0125 0.462891 16.798 0.621094 16.6398V16.6434Z" fill="#27AE60"/>
</svg>
