<svg width="17" height="16" viewBox="0 0 17 16" fill="none" xmlns="http://www.w3.org/2000/svg">
<path d="M9.98438 1C9.98438 0.446875 9.5375 0 8.98438 0C8.43125 0 7.98438 0.446875 7.98438 1V8.58438L5.69063 6.29063C5.3 5.9 4.66563 5.9 4.275 6.29063C3.88438 6.68125 3.88438 7.31563 4.275 7.70625L8.275 11.7063C8.66563 12.0969 9.3 12.0969 9.69063 11.7063L13.6906 7.70625C14.0813 7.31563 14.0813 6.68125 13.6906 6.29063C13.3 5.9 12.6656 5.9 12.275 6.29063L9.98438 8.58438V1ZM2.98438 11C1.88125 11 0.984375 11.8969 0.984375 13V14C0.984375 15.1031 1.88125 16 2.98438 16H14.9844C16.0875 16 16.9844 15.1031 16.9844 14V13C16.9844 11.8969 16.0875 11 14.9844 11H11.8125L10.3969 12.4156C9.61563 13.1969 8.35 13.1969 7.56875 12.4156L6.15625 11H2.98438ZM14.4844 12.75C14.6833 12.75 14.8741 12.829 15.0147 12.9697C15.1554 13.1103 15.2344 13.3011 15.2344 13.5C15.2344 13.6989 15.1554 13.8897 15.0147 14.0303C14.8741 14.171 14.6833 14.25 14.4844 14.25C14.2855 14.25 14.0947 14.171 13.954 14.0303C13.8134 13.8897 13.7344 13.6989 13.7344 13.5C13.7344 13.3011 13.8134 13.1103 13.954 12.9697C14.0947 12.829 14.2855 12.75 14.4844 12.75Z" fill="#374151"/>
</svg>
