<svg width="18" height="17" viewBox="0 0 18 17" fill="none" xmlns="http://www.w3.org/2000/svg">
<path d="M1.67344 9.80954L8.02617 15.7404C8.28984 15.9865 8.63789 16.1236 9 16.1236C9.36211 16.1236 9.71016 15.9865 9.97383 15.7404L16.3266 9.80954C17.3953 8.81462 18 7.41891 18 5.95993V5.75602C18 3.2986 16.2246 1.20329 13.8023 0.798992C12.1992 0.531804 10.568 1.05563 9.42188 2.20173L9 2.6236L8.57812 2.20173C7.43203 1.05563 5.80078 0.531804 4.19766 0.798992C1.77539 1.20329 0 3.2986 0 5.75602V5.95993C0 7.41891 0.604687 8.81462 1.67344 9.80954Z" fill="#9333EA"/>
</svg>
