<svg width="15" height="15" viewBox="0 0 15 15" fill="none" xmlns="http://www.w3.org/2000/svg">
<path d="M14.7812 7.75C14.7812 7.77461 14.7812 7.79922 14.7812 7.82383C14.7703 8.82188 13.8625 9.5 12.8645 9.5H10.1875C9.46289 9.5 8.875 10.0879 8.875 10.8125C8.875 10.9055 8.88594 10.9957 8.90234 11.0832C8.95977 11.3621 9.08008 11.6301 9.19766 11.9008C9.36445 12.2781 9.52852 12.6527 9.52852 13.0492C9.52852 13.9187 8.93789 14.709 8.06836 14.7445C7.97266 14.7473 7.87695 14.75 7.77852 14.75C3.91484 14.75 0.78125 11.6164 0.78125 7.75C0.78125 3.88359 3.91484 0.75 7.78125 0.75C11.6477 0.75 14.7812 3.88359 14.7812 7.75ZM4.28125 8.625C4.28125 8.39294 4.18906 8.17038 4.02497 8.00628C3.86087 7.84219 3.63831 7.75 3.40625 7.75C3.17419 7.75 2.95163 7.84219 2.78753 8.00628C2.62344 8.17038 2.53125 8.39294 2.53125 8.625C2.53125 8.85706 2.62344 9.07962 2.78753 9.24372C2.95163 9.40781 3.17419 9.5 3.40625 9.5C3.63831 9.5 3.86087 9.40781 4.02497 9.24372C4.18906 9.07962 4.28125 8.85706 4.28125 8.625ZM4.28125 6C4.51331 6 4.73587 5.90781 4.89997 5.74372C5.06406 5.57962 5.15625 5.35706 5.15625 5.125C5.15625 4.89294 5.06406 4.67038 4.89997 4.50628C4.73587 4.34219 4.51331 4.25 4.28125 4.25C4.04919 4.25 3.82663 4.34219 3.66253 4.50628C3.49844 4.67038 3.40625 4.89294 3.40625 5.125C3.40625 5.35706 3.49844 5.57962 3.66253 5.74372C3.82663 5.90781 4.04919 6 4.28125 6ZM8.65625 3.375C8.65625 3.14294 8.56406 2.92038 8.39997 2.75628C8.23587 2.59219 8.01331 2.5 7.78125 2.5C7.54919 2.5 7.32663 2.59219 7.16253 2.75628C6.99844 2.92038 6.90625 3.14294 6.90625 3.375C6.90625 3.60706 6.99844 3.82962 7.16253 3.99372C7.32663 4.15781 7.54919 4.25 7.78125 4.25C8.01331 4.25 8.23587 4.15781 8.39997 3.99372C8.56406 3.82962 8.65625 3.60706 8.65625 3.375ZM11.2812 6C11.5133 6 11.7359 5.90781 11.9 5.74372C12.0641 5.57962 12.1562 5.35706 12.1562 5.125C12.1562 4.89294 12.0641 4.67038 11.9 4.50628C11.7359 4.34219 11.5133 4.25 11.2812 4.25C11.0492 4.25 10.8266 4.34219 10.6625 4.50628C10.4984 4.67038 10.4062 4.89294 10.4062 5.125C10.4062 5.35706 10.4984 5.57962 10.6625 5.74372C10.8266 5.90781 11.0492 6 11.2812 6Z" fill="#4B5563"/>
</svg>
