<svg width="16" height="13" viewBox="0 0 16 13" fill="none" xmlns="http://www.w3.org/2000/svg">
<path d="M1.75 3.25V2.375H3.5V11.125H2.625C2.14102 11.125 1.75 11.516 1.75 12C1.75 12.484 2.14102 12.875 2.625 12.875H6.125C6.60898 12.875 7 12.484 7 12C7 11.516 6.60898 11.125 6.125 11.125H5.25V2.375H7V3.25C7 3.73398 7.39102 4.125 7.875 4.125C8.35898 4.125 8.75 3.73398 8.75 3.25V1.9375C8.75 1.21289 8.16211 0.625 7.4375 0.625H4.375H1.3125C0.587891 0.625 0 1.21289 0 1.9375V3.25C0 3.73398 0.391016 4.125 0.875 4.125C1.35898 4.125 1.75 3.73398 1.75 3.25ZM13.743 0.882031C13.4012 0.540234 12.8461 0.540234 12.5043 0.882031L10.7543 2.63203C10.5027 2.88359 10.4289 3.2582 10.5656 3.58633C10.7023 3.91445 11.0195 4.12773 11.375 4.12773H12.25V9.375H11.375C11.0223 9.375 10.7023 9.58828 10.5656 9.91641C10.4289 10.2445 10.5055 10.6191 10.7543 10.8707L12.5043 12.6207C12.8461 12.9625 13.4012 12.9625 13.743 12.6207L15.493 10.8707C15.7445 10.6191 15.8184 10.2445 15.6816 9.91641C15.5449 9.58828 15.2277 9.375 14.8723 9.375H14V4.125H14.875C15.2277 4.125 15.5477 3.91172 15.6844 3.58359C15.8211 3.25547 15.7445 2.88086 15.4957 2.6293L13.7457 0.879297L13.743 0.882031Z" fill="#4B5563"/>
</svg>
